<?xml version="1.0" encoding="UTF-8" standalone="no"?>
<!DOCTYPE svg PUBLIC "-//W3C//DTD SVG 1.1//EN"
 "http://www.w3.org/Graphics/SVG/1.1/DTD/svg11.dtd">
<!-- Generated by graphviz version 3.0.0 (20220226.1711)
 -->
<!-- Title: dependency&#45;cruiser output Pages: 1 -->
<svg width="1019pt" height="520pt"
 viewBox="0.00 0.00 1018.50 520.00" xmlns="http://www.w3.org/2000/svg" xmlns:xlink="http://www.w3.org/1999/xlink">
<g id="graph0" class="graph" transform="scale(1 1) rotate(0) translate(4 516)">
<title>dependency&#45;cruiser output</title>
<polygon fill="white" stroke="transparent" points="-4,4 -4,-516 1014.5,-516 1014.5,4 -4,4"/>
<g id="clust1" class="cluster">
<title>cluster_src</title>
<path fill="#ffffff" stroke="black" stroke-width="2" d="M20,-8C20,-8 990.5,-8 990.5,-8 996.5,-8 1002.5,-14 1002.5,-20 1002.5,-20 1002.5,-492 1002.5,-492 1002.5,-498 996.5,-504 990.5,-504 990.5,-504 20,-504 20,-504 14,-504 8,-498 8,-492 8,-492 8,-20 8,-20 8,-14 14,-8 20,-8"/>
<text text-anchor="middle" x="505.25" y="-492.8" font-family="Helvetica,sans-Serif" font-weight="bold" font-size="9.00">src</text>
</g>
<g id="clust2" class="cluster">
<title>cluster_src/api</title>
<path fill="#ffffff" stroke="black" stroke-width="2" d="M936.5,-368C936.5,-368 982.5,-368 982.5,-368 988.5,-368 994.5,-374 994.5,-380 994.5,-380 994.5,-408 994.5,-408 994.5,-414 988.5,-420 982.5,-420 982.5,-420 936.5,-420 936.5,-420 930.5,-420 924.5,-414 924.5,-408 924.5,-408 924.5,-380 924.5,-380 924.5,-374 930.5,-368 936.5,-368"/>
<text text-anchor="middle" x="959.5" y="-408.8" font-family="Helvetica,sans-Serif" font-weight="bold" font-size="9.00">api</text>
</g>
<g id="clust3" class="cluster">
<title>cluster_src/components</title>
<path fill="#ffffff" stroke="black" stroke-width="2" d="M231,-16C231,-16 790.5,-16 790.5,-16 796.5,-16 802.5,-22 802.5,-28 802.5,-28 802.5,-150 802.5,-150 802.5,-156 796.5,-162 790.5,-162 790.5,-162 231,-162 231,-162 225,-162 219,-156 219,-150 219,-150 219,-28 219,-28 219,-22 225,-16 231,-16"/>
<text text-anchor="middle" x="510.75" y="-150.8" font-family="Helvetica,sans-Serif" font-weight="bold" font-size="9.00">components</text>
</g>
<g id="clust4" class="cluster">
<title>cluster_src/components/AddItemButton</title>
<path fill="#ffffff" stroke="black" stroke-width="2" d="M561,-24C561,-24 782.5,-24 782.5,-24 788.5,-24 794.5,-30 794.5,-36 794.5,-36 794.5,-64 794.5,-64 794.5,-70 788.5,-76 782.5,-76 782.5,-76 561,-76 561,-76 555,-76 549,-70 549,-64 549,-64 549,-36 549,-36 549,-30 555,-24 561,-24"/>
<text text-anchor="middle" x="671.75" y="-64.8" font-family="Helvetica,sans-Serif" font-weight="bold" font-size="9.00">AddItemButton</text>
</g>
<g id="clust5" class="cluster">
<title>cluster_src/components/AddNewItem</title>
<path fill="#ffffff" stroke="black" stroke-width="2" d="M454,-24C454,-24 529,-24 529,-24 535,-24 541,-30 541,-36 541,-36 541,-64 541,-64 541,-70 535,-76 529,-76 529,-76 454,-76 454,-76 448,-76 442,-70 442,-64 442,-64 442,-36 442,-36 442,-30 448,-24 454,-24"/>
<text text-anchor="middle" x="491.5" y="-64.8" font-family="Helvetica,sans-Serif" font-weight="bold" font-size="9.00">AddNewItem</text>
</g>
<g id="clust6" class="cluster">
<title>cluster_src/components/Card</title>
<path fill="#ffffff" stroke="black" stroke-width="2" d="M468.5,-84C468.5,-84 514.5,-84 514.5,-84 520.5,-84 526.5,-90 526.5,-96 526.5,-96 526.5,-124 526.5,-124 526.5,-130 520.5,-136 514.5,-136 514.5,-136 468.5,-136 468.5,-136 462.5,-136 456.5,-130 456.5,-124 456.5,-124 456.5,-96 456.5,-96 456.5,-90 462.5,-84 468.5,-84"/>
<text text-anchor="middle" x="491.5" y="-124.8" font-family="Helvetica,sans-Serif" font-weight="bold" font-size="9.00">Card</text>
</g>
<g id="clust7" class="cluster">
<title>cluster_src/components/Column</title>
<path fill="#ffffff" stroke="black" stroke-width="2" d="M368,-84C368,-84 422,-84 422,-84 428,-84 434,-90 434,-96 434,-96 434,-124 434,-124 434,-130 428,-136 422,-136 422,-136 368,-136 368,-136 362,-136 356,-130 356,-124 356,-124 356,-96 356,-96 356,-90 362,-84 368,-84"/>
<text text-anchor="middle" x="395" y="-124.8" font-family="Helvetica,sans-Serif" font-weight="bold" font-size="9.00">Column</text>
</g>
<g id="clust8" class="cluster">
<title>cluster_src/components/CustomDragLayer</title>
<path fill="#ffffff" stroke="black" stroke-width="2" d="M239,-84C239,-84 336,-84 336,-84 342,-84 348,-90 348,-96 348,-96 348,-124 348,-124 348,-130 342,-136 336,-136 336,-136 239,-136 239,-136 233,-136 227,-130 227,-124 227,-124 227,-96 227,-96 227,-90 233,-84 239,-84"/>
<text text-anchor="middle" x="287.5" y="-124.8" font-family="Helvetica,sans-Serif" font-weight="bold" font-size="9.00">CustomDragLayer</text>
</g>
<g id="clust9" class="cluster">
<title>cluster_src/components/NewItemForm</title>
<path fill="#ffffff" stroke="black" stroke-width="2" d="M562.5,-84C562.5,-84 641.5,-84 641.5,-84 647.5,-84 653.5,-90 653.5,-96 653.5,-96 653.5,-124 653.5,-124 653.5,-130 647.5,-136 641.5,-136 641.5,-136 562.5,-136 562.5,-136 556.5,-136 550.5,-130 550.5,-124 550.5,-124 550.5,-96 550.5,-96 550.5,-90 556.5,-84 562.5,-84"/>
<text text-anchor="middle" x="602" y="-124.8" font-family="Helvetica,sans-Serif" font-weight="bold" font-size="9.00">NewItemForm</text>
</g>
<g id="clust10" class="cluster">
<title>cluster_src/state</title>
<path fill="#ffffff" stroke="black" stroke-width="2" d="M678.5,-327C678.5,-327 904.5,-327 904.5,-327 910.5,-327 916.5,-333 916.5,-339 916.5,-339 916.5,-397 916.5,-397 916.5,-403 910.5,-409 904.5,-409 904.5,-409 678.5,-409 678.5,-409 672.5,-409 666.5,-403 666.5,-397 666.5,-397 666.5,-339 666.5,-339 666.5,-333 672.5,-327 678.5,-327"/>
<text text-anchor="middle" x="791.5" y="-397.8" font-family="Helvetica,sans-Serif" font-weight="bold" font-size="9.00">state</text>
</g>
<g id="clust11" class="cluster">
<title>cluster_src/trellobackend</title>
<path fill="#ffffff" stroke="black" stroke-width="2" d="M36,-426C36,-426 87,-426 87,-426 93,-426 99,-432 99,-438 99,-438 99,-466 99,-466 99,-472 93,-478 87,-478 87,-478 36,-478 36,-478 30,-478 24,-472 24,-466 24,-466 24,-438 24,-438 24,-432 30,-426 36,-426"/>
<text text-anchor="middle" x="61.5" y="-466.8" font-family="Helvetica,sans-Serif" font-weight="bold" font-size="9.00">trellobackend</text>
</g>
<g id="clust12" class="cluster">
<title>cluster_src/utils</title>
<path fill="#ffffff" stroke="black" stroke-width="2" d="M567,-170C567,-170 637,-170 637,-170 643,-170 649,-176 649,-182 649,-182 649,-330 649,-330 649,-336 643,-342 637,-342 637,-342 567,-342 567,-342 561,-342 555,-336 555,-330 555,-330 555,-182 555,-182 555,-176 561,-170 567,-170"/>
<text text-anchor="middle" x="602" y="-330.8" font-family="Helvetica,sans-Serif" font-weight="bold" font-size="9.00">utils</text>
</g>
<!-- src/App.test.tsx -->
<g id="node1" class="node">
<title>src/App.test.tsx</title>
<g id="a_node1"><a xlink:href="src/App.test.tsx" xlink:title="App.test.tsx">
<path fill="#bbfeff" stroke="black" d="M86.5,-388C86.5,-388 35.5,-388 35.5,-388 32.5,-388 29.5,-385 29.5,-382 29.5,-382 29.5,-376 29.5,-376 29.5,-373 32.5,-370 35.5,-370 35.5,-370 86.5,-370 86.5,-370 89.5,-370 92.5,-373 92.5,-376 92.5,-376 92.5,-382 92.5,-382 92.5,-385 89.5,-388 86.5,-388"/>
<text text-anchor="start" x="37.5" y="-376.8" font-family="Helvetica,sans-Serif" font-size="9.00">App.test.tsx</text>
</a>
</g>
</g>
<!-- src/App.tsx -->
<g id="node2" class="node">
<title>src/App.tsx</title>
<g id="a_node2"><a xlink:href="src/App.tsx" xlink:title="App.tsx">
<path fill="#bbfeff" stroke="black" d="M186.5,-388C186.5,-388 144.5,-388 144.5,-388 141.5,-388 138.5,-385 138.5,-382 138.5,-382 138.5,-376 138.5,-376 138.5,-373 141.5,-370 144.5,-370 144.5,-370 186.5,-370 186.5,-370 189.5,-370 192.5,-373 192.5,-376 192.5,-376 192.5,-382 192.5,-382 192.5,-385 189.5,-388 186.5,-388"/>
<text text-anchor="start" x="150" y="-376.8" font-family="Helvetica,sans-Serif" font-size="9.00">App.tsx</text>
</a>
</g>
</g>
<!-- src/App.test.tsx&#45;&gt;src/App.tsx -->
<g id="edge1" class="edge">
<title>src/App.test.tsx&#45;&gt;src/App.tsx</title>
<path fill="none" stroke="#000000" stroke-width="2" stroke-opacity="0.200000" d="M92.75,-379C105.22,-379 119.62,-379 132.24,-379"/>
<polygon fill="#000000" fill-opacity="0.200000" stroke="#000000" stroke-width="2" stroke-opacity="0.200000" points="132.27,-381.1 138.27,-379 132.27,-376.9 132.27,-381.1"/>
</g>
<!-- src/components/AddNewItem/AddNewItem.tsx -->
<g id="node3" class="node">
<title>src/components/AddNewItem/AddNewItem.tsx</title>
<g id="a_node3"><a xlink:href="src/components/AddNewItem/AddNewItem.tsx" xlink:title="AddNewItem.tsx">
<path fill="#bbfeff" stroke="black" d="M527,-50C527,-50 456,-50 456,-50 453,-50 450,-47 450,-44 450,-44 450,-38 450,-38 450,-35 453,-32 456,-32 456,-32 527,-32 527,-32 530,-32 533,-35 533,-38 533,-38 533,-44 533,-44 533,-47 530,-50 527,-50"/>
<text text-anchor="start" x="458" y="-38.8" font-family="Helvetica,sans-Serif" font-size="9.00">AddNewItem.tsx</text>
</a>
</g>
</g>
<!-- src/App.tsx&#45;&gt;src/components/AddNewItem/AddNewItem.tsx -->
<g id="edge2" class="edge">
<title>src/App.tsx&#45;&gt;src/components/AddNewItem/AddNewItem.tsx</title>
<path fill="none" stroke="#000000" stroke-width="2" stroke-opacity="0.200000" d="M166.53,-369.84C166.87,-321.88 171.06,-100.25 219,-57 283.61,1.29 395.89,-16.05 453.73,-30.34"/>
<polygon fill="#000000" fill-opacity="0.200000" stroke="#000000" stroke-width="2" stroke-opacity="0.200000" points="453.5,-32.45 459.83,-31.89 454.53,-28.38 453.5,-32.45"/>
</g>
<!-- src/components/Column/Column.tsx -->
<g id="node4" class="node">
<title>src/components/Column/Column.tsx</title>
<g id="a_node4"><a xlink:href="src/components/Column/Column.tsx" xlink:title="Column.tsx">
<path fill="#bbfeff" stroke="black" d="M420,-110C420,-110 370,-110 370,-110 367,-110 364,-107 364,-104 364,-104 364,-98 364,-98 364,-95 367,-92 370,-92 370,-92 420,-92 420,-92 423,-92 426,-95 426,-98 426,-98 426,-104 426,-104 426,-107 423,-110 420,-110"/>
<text text-anchor="start" x="372" y="-98.8" font-family="Helvetica,sans-Serif" font-size="9.00">Column.tsx</text>
</a>
</g>
</g>
<!-- src/App.tsx&#45;&gt;src/components/Column/Column.tsx -->
<g id="edge3" class="edge">
<title>src/App.tsx&#45;&gt;src/components/Column/Column.tsx</title>
<path fill="none" stroke="#000000" stroke-width="2" stroke-opacity="0.200000" d="M166.61,-369.87C167.37,-323.99 173.33,-119.33 219,-81 262.92,-44.14 294.33,-60.83 348,-81 352.42,-82.66 351.91,-85.64 356,-88 356.6,-88.35 357.22,-88.69 357.84,-89.02"/>
<polygon fill="#000000" fill-opacity="0.200000" stroke="#000000" stroke-width="2" stroke-opacity="0.200000" points="357.33,-91.11 363.65,-91.83 359.16,-87.33 357.33,-91.11"/>
</g>
<!-- src/components/CustomDragLayer/CustomDragLayer.tsx -->
<g id="node5" class="node">
<title>src/components/CustomDragLayer/CustomDragLayer.tsx</title>
<g id="a_node5"><a xlink:href="src/components/CustomDragLayer/CustomDragLayer.tsx" xlink:title="CustomDragLayer.tsx">
<path fill="#bbfeff" stroke="black" d="M334,-110C334,-110 241,-110 241,-110 238,-110 235,-107 235,-104 235,-104 235,-98 235,-98 235,-95 238,-92 241,-92 241,-92 334,-92 334,-92 337,-92 340,-95 340,-98 340,-98 340,-104 340,-104 340,-107 337,-110 334,-110"/>
<text text-anchor="start" x="243" y="-98.8" font-family="Helvetica,sans-Serif" font-size="9.00">CustomDragLayer.tsx</text>
</a>
</g>
</g>
<!-- src/App.tsx&#45;&gt;src/components/CustomDragLayer/CustomDragLayer.tsx -->
<g id="edge4" class="edge">
<title>src/App.tsx&#45;&gt;src/components/CustomDragLayer/CustomDragLayer.tsx</title>
<path fill="none" stroke="#000000" stroke-width="2" stroke-opacity="0.200000" d="M166.98,-369.92C169.39,-327.72 181.59,-151.21 219,-114 222.01,-111 225.49,-108.59 229.25,-106.65"/>
<polygon fill="#000000" fill-opacity="0.200000" stroke="#000000" stroke-width="2" stroke-opacity="0.200000" points="230.3,-108.49 234.94,-104.14 228.6,-104.64 230.3,-108.49"/>
</g>
<!-- src/state/actions.ts -->
<g id="node6" class="node">
<title>src/state/actions.ts</title>
<g id="a_node6"><a xlink:href="src/state/actions.ts" xlink:title="actions.ts">
<path fill="#ddfeff" stroke="black" d="M745.5,-353C745.5,-353 702.5,-353 702.5,-353 699.5,-353 696.5,-350 696.5,-347 696.5,-347 696.5,-341 696.5,-341 696.5,-338 699.5,-335 702.5,-335 702.5,-335 745.5,-335 745.5,-335 748.5,-335 751.5,-338 751.5,-341 751.5,-341 751.5,-347 751.5,-347 751.5,-350 748.5,-353 745.5,-353"/>
<text text-anchor="start" x="704.5" y="-341.8" font-family="Helvetica,sans-Serif" font-size="9.00">actions.ts</text>
</a>
</g>
</g>
<!-- src/App.tsx&#45;&gt;src/state/actions.ts -->
<g id="edge5" class="edge">
<title>src/App.tsx&#45;&gt;src/state/actions.ts</title>
<path fill="none" stroke="#000000" stroke-width="2" stroke-opacity="0.200000" d="M192.71,-378.7C265.82,-377.65 478.15,-373.14 653.5,-355 665.61,-353.75 678.82,-351.8 690.44,-349.9"/>
<polygon fill="#000000" fill-opacity="0.200000" stroke="#000000" stroke-width="2" stroke-opacity="0.200000" points="690.78,-351.97 696.36,-348.91 690.09,-347.83 690.78,-351.97"/>
</g>
<!-- src/state/AppStateContext.tsx -->
<g id="node7" class="node">
<title>src/state/AppStateContext.tsx</title>
<g id="a_node7"><a xlink:href="src/state/AppStateContext.tsx" xlink:title="AppStateContext.tsx">
<path fill="#bbfeff" stroke="black" d="M767.5,-383C767.5,-383 680.5,-383 680.5,-383 677.5,-383 674.5,-380 674.5,-377 674.5,-377 674.5,-371 674.5,-371 674.5,-368 677.5,-365 680.5,-365 680.5,-365 767.5,-365 767.5,-365 770.5,-365 773.5,-368 773.5,-371 773.5,-371 773.5,-377 773.5,-377 773.5,-380 770.5,-383 767.5,-383"/>
<text text-anchor="start" x="682.5" y="-371.8" font-family="Helvetica,sans-Serif" font-size="9.00">AppStateContext.tsx</text>
</a>
</g>
</g>
<!-- src/App.tsx&#45;&gt;src/state/AppStateContext.tsx -->
<g id="edge6" class="edge">
<title>src/App.tsx&#45;&gt;src/state/AppStateContext.tsx</title>
<path fill="none" stroke="#000000" stroke-width="2" stroke-opacity="0.200000" d="M192.53,-383.11C199.33,-385.33 206.11,-388.75 211,-394 220.69,-404.42 208,-415.97 219,-425 249.1,-449.72 355.05,-435 394,-435 394,-435 394,-435 492.5,-435 564.85,-435 598.1,-457.52 653.5,-411 662.11,-403.77 653.11,-394.49 661.5,-387 663.72,-385.02 666.17,-383.31 668.77,-381.84"/>
<polygon fill="#000000" fill-opacity="0.200000" stroke="#000000" stroke-width="2" stroke-opacity="0.200000" points="669.83,-383.66 674.3,-379.14 667.99,-379.88 669.83,-383.66"/>
</g>
<!-- src/styles.ts -->
<g id="node8" class="node">
<title>src/styles.ts</title>
<g id="a_node8"><a xlink:href="src/styles.ts" xlink:title="styles.ts">
<path fill="#ddfeff" stroke="black" d="M745,-435C745,-435 703,-435 703,-435 700,-435 697,-432 697,-429 697,-429 697,-423 697,-423 697,-420 700,-417 703,-417 703,-417 745,-417 745,-417 748,-417 751,-420 751,-423 751,-423 751,-429 751,-429 751,-432 748,-435 745,-435"/>
<text text-anchor="start" x="707.5" y="-423.8" font-family="Helvetica,sans-Serif" font-size="9.00">styles.ts</text>
</a>
</g>
</g>
<!-- src/App.tsx&#45;&gt;src/styles.ts -->
<g id="edge7" class="edge">
<title>src/App.tsx&#45;&gt;src/styles.ts</title>
<path fill="none" stroke="#000000" stroke-width="2" stroke-opacity="0.200000" d="M192.75,-382.91C199.55,-385.13 206.29,-388.59 211,-394 223.49,-408.32 204.49,-423.73 219,-436 227.08,-442.83 501.89,-440.4 541,-439 593.52,-437.13 654.4,-432.22 690.75,-429"/>
<polygon fill="#000000" fill-opacity="0.200000" stroke="#000000" stroke-width="2" stroke-opacity="0.200000" points="691.02,-431.09 696.81,-428.46 690.65,-426.9 691.02,-431.09"/>
</g>
<!-- src/components/AddItemButton/AddItemButton.tsx -->
<g id="node11" class="node">
<title>src/components/AddItemButton/AddItemButton.tsx</title>
<g id="a_node11"><a xlink:href="src/components/AddItemButton/AddItemButton.tsx" xlink:title="AddItemButton.tsx">
<path fill="#bbfeff" stroke="black" d="M641,-50C641,-50 563,-50 563,-50 560,-50 557,-47 557,-44 557,-44 557,-38 557,-38 557,-35 560,-32 563,-32 563,-32 641,-32 641,-32 644,-32 647,-35 647,-38 647,-38 647,-44 647,-44 647,-47 644,-50 641,-50"/>
<text text-anchor="start" x="565" y="-38.8" font-family="Helvetica,sans-Serif" font-size="9.00">AddItemButton.tsx</text>
</a>
</g>
</g>
<!-- src/components/AddNewItem/AddNewItem.tsx&#45;&gt;src/components/AddItemButton/AddItemButton.tsx -->
<g id="edge9" class="edge">
<title>src/components/AddNewItem/AddNewItem.tsx&#45;&gt;src/components/AddItemButton/AddItemButton.tsx</title>
<path fill="none" stroke="#000000" stroke-width="2" stroke-opacity="0.200000" d="M533.21,-41C538.86,-41 544.72,-41 550.53,-41"/>
<polygon fill="#000000" fill-opacity="0.200000" stroke="#000000" stroke-width="2" stroke-opacity="0.200000" points="550.79,-43.1 556.79,-41 550.79,-38.9 550.79,-43.1"/>
</g>
<!-- src/components/NewItemForm/NewItemForm.tsx -->
<g id="node12" class="node">
<title>src/components/NewItemForm/NewItemForm.tsx</title>
<g id="a_node12"><a xlink:href="src/components/NewItemForm/NewItemForm.tsx" xlink:title="NewItemForm.tsx">
<path fill="#bbfeff" stroke="black" d="M639.5,-110C639.5,-110 564.5,-110 564.5,-110 561.5,-110 558.5,-107 558.5,-104 558.5,-104 558.5,-98 558.5,-98 558.5,-95 561.5,-92 564.5,-92 564.5,-92 639.5,-92 639.5,-92 642.5,-92 645.5,-95 645.5,-98 645.5,-98 645.5,-104 645.5,-104 645.5,-107 642.5,-110 639.5,-110"/>
<text text-anchor="start" x="566.5" y="-98.8" font-family="Helvetica,sans-Serif" font-size="9.00">NewItemForm.tsx</text>
</a>
</g>
</g>
<!-- src/components/AddNewItem/AddNewItem.tsx&#45;&gt;src/components/NewItemForm/NewItemForm.tsx -->
<g id="edge10" class="edge">
<title>src/components/AddNewItem/AddNewItem.tsx&#45;&gt;src/components/NewItemForm/NewItemForm.tsx</title>
<path fill="none" stroke="#000000" stroke-width="2" stroke-opacity="0.200000" d="M504.64,-50.16C515.8,-58.34 532.99,-70.33 549,-79 556.08,-82.83 563.96,-86.47 571.41,-89.64"/>
<polygon fill="#000000" fill-opacity="0.200000" stroke="#000000" stroke-width="2" stroke-opacity="0.200000" points="570.65,-91.6 576.99,-91.97 572.27,-87.72 570.65,-91.6"/>
</g>
<!-- src/components/Column/Column.tsx&#45;&gt;src/components/AddNewItem/AddNewItem.tsx -->
<g id="edge21" class="edge">
<title>src/components/Column/Column.tsx&#45;&gt;src/components/AddNewItem/AddNewItem.tsx</title>
<path fill="none" stroke="#000000" stroke-width="2" stroke-opacity="0.200000" d="M426.35,-91.83C429,-90.67 431.59,-89.4 434,-88 438.09,-85.64 438.4,-84.06 442,-81 452.77,-71.85 465.04,-61.73 474.55,-53.96"/>
<polygon fill="#000000" fill-opacity="0.200000" stroke="#000000" stroke-width="2" stroke-opacity="0.200000" points="475.93,-55.54 479.25,-50.12 473.27,-52.29 475.93,-55.54"/>
</g>
<!-- src/components/Column/Column.tsx&#45;&gt;src/state/actions.ts -->
<g id="edge16" class="edge">
<title>src/components/Column/Column.tsx&#45;&gt;src/state/actions.ts</title>
<path fill="none" stroke="#000000" stroke-width="2" stroke-opacity="0.200000" d="M397.38,-110.31C401.24,-134.02 413.72,-198.03 442,-243 476.97,-298.62 488,-320.58 549,-345 595.26,-363.52 654.15,-357.76 690.19,-351.32"/>
<polygon fill="#000000" fill-opacity="0.200000" stroke="#000000" stroke-width="2" stroke-opacity="0.200000" points="690.69,-353.36 696.2,-350.2 689.92,-349.23 690.69,-353.36"/>
</g>
<!-- src/components/Column/Column.tsx&#45;&gt;src/state/AppStateContext.tsx -->
<g id="edge17" class="edge">
<title>src/components/Column/Column.tsx&#45;&gt;src/state/AppStateContext.tsx</title>
<path fill="none" stroke="#000000" stroke-width="2" stroke-opacity="0.200000" d="M395.71,-110.18C395.22,-140.03 397.39,-235.86 442,-295 494.25,-364.27 602.32,-376.22 668.16,-376.54"/>
<polygon fill="#000000" fill-opacity="0.200000" stroke="#000000" stroke-width="2" stroke-opacity="0.200000" points="668.39,-378.64 674.39,-376.53 668.39,-374.44 668.39,-378.64"/>
</g>
<!-- src/components/Column/Column.tsx&#45;&gt;src/styles.ts -->
<g id="edge18" class="edge">
<title>src/components/Column/Column.tsx&#45;&gt;src/styles.ts</title>
<path fill="none" stroke="#000000" stroke-width="2" stroke-opacity="0.200000" d="M426.18,-107.27C429.2,-109 431.92,-111.2 434,-114 448.33,-133.28 428.19,-310.35 442,-330 499.19,-411.34 629.71,-424.61 690.6,-426.2"/>
<polygon fill="#000000" fill-opacity="0.200000" stroke="#000000" stroke-width="2" stroke-opacity="0.200000" points="690.58,-428.3 696.62,-426.33 690.67,-424.1 690.58,-428.3"/>
</g>
<!-- src/components/Card/Card.tsx -->
<g id="node13" class="node">
<title>src/components/Card/Card.tsx</title>
<g id="a_node13"><a xlink:href="src/components/Card/Card.tsx" xlink:title="Card.tsx">
<path fill="#bbfeff" stroke="black" d="M512.5,-110C512.5,-110 470.5,-110 470.5,-110 467.5,-110 464.5,-107 464.5,-104 464.5,-104 464.5,-98 464.5,-98 464.5,-95 467.5,-92 470.5,-92 470.5,-92 512.5,-92 512.5,-92 515.5,-92 518.5,-95 518.5,-98 518.5,-98 518.5,-104 518.5,-104 518.5,-107 515.5,-110 512.5,-110"/>
<text text-anchor="start" x="474.5" y="-98.8" font-family="Helvetica,sans-Serif" font-size="9.00">Card.tsx</text>
</a>
</g>
</g>
<!-- src/components/Column/Column.tsx&#45;&gt;src/components/Card/Card.tsx -->
<g id="edge22" class="edge">
<title>src/components/Column/Column.tsx&#45;&gt;src/components/Card/Card.tsx</title>
<path fill="none" stroke="#000000" stroke-width="2" stroke-opacity="0.200000" d="M426.16,-101C436.46,-101 448,-101 458.44,-101"/>
<polygon fill="#000000" fill-opacity="0.200000" stroke="#000000" stroke-width="2" stroke-opacity="0.200000" points="458.44,-103.1 464.44,-101 458.44,-98.9 458.44,-103.1"/>
</g>
<!-- src/utils/isHidden.ts -->
<g id="node14" class="node">
<title>src/utils/isHidden.ts</title>
<g id="a_node14"><a xlink:href="src/utils/isHidden.ts" xlink:title="isHidden.ts">
<path fill="#ddfeff" stroke="black" d="M627,-316C627,-316 577,-316 577,-316 574,-316 571,-313 571,-310 571,-310 571,-304 571,-304 571,-301 574,-298 577,-298 577,-298 627,-298 627,-298 630,-298 633,-301 633,-304 633,-304 633,-310 633,-310 633,-313 630,-316 627,-316"/>
<text text-anchor="start" x="579" y="-304.8" font-family="Helvetica,sans-Serif" font-size="9.00">isHidden.ts</text>
</a>
</g>
</g>
<!-- src/components/Column/Column.tsx&#45;&gt;src/utils/isHidden.ts -->
<g id="edge19" class="edge">
<title>src/components/Column/Column.tsx&#45;&gt;src/utils/isHidden.ts</title>
<path fill="none" stroke="#000000" stroke-width="2" stroke-opacity="0.200000" d="M399.36,-110.12C405.93,-127.22 421.6,-164.81 442,-192 481.06,-244.07 492.39,-259.87 549,-292 553.92,-294.79 559.4,-297.1 564.91,-299"/>
<polygon fill="#000000" fill-opacity="0.200000" stroke="#000000" stroke-width="2" stroke-opacity="0.200000" points="564.52,-301.08 570.87,-300.9 565.8,-297.08 564.52,-301.08"/>
</g>
<!-- src/utils/useItemDrag.ts -->
<g id="node15" class="node">
<title>src/utils/useItemDrag.ts</title>
<g id="a_node15"><a xlink:href="src/utils/useItemDrag.ts" xlink:title="useItemDrag.ts">
<path fill="#ddfeff" stroke="black" d="M635,-256C635,-256 569,-256 569,-256 566,-256 563,-253 563,-250 563,-250 563,-244 563,-244 563,-241 566,-238 569,-238 569,-238 635,-238 635,-238 638,-238 641,-241 641,-244 641,-244 641,-250 641,-250 641,-253 638,-256 635,-256"/>
<text text-anchor="start" x="571" y="-244.8" font-family="Helvetica,sans-Serif" font-size="9.00">useItemDrag.ts</text>
</a>
</g>
</g>
<!-- src/components/Column/Column.tsx&#45;&gt;src/utils/useItemDrag.ts -->
<g id="edge20" class="edge">
<title>src/components/Column/Column.tsx&#45;&gt;src/utils/useItemDrag.ts</title>
<path fill="none" stroke="#000000" stroke-width="2" stroke-opacity="0.200000" d="M403.97,-110.13C425.16,-133.82 485.59,-197.81 549,-232 551.55,-233.38 554.25,-234.64 557.01,-235.8"/>
<polygon fill="#000000" fill-opacity="0.200000" stroke="#000000" stroke-width="2" stroke-opacity="0.200000" points="556.4,-237.81 562.76,-238.02 557.92,-233.9 556.4,-237.81"/>
</g>
<!-- src/components/CustomDragLayer/CustomDragLayer.tsx&#45;&gt;src/components/Column/Column.tsx -->
<g id="edge26" class="edge">
<title>src/components/CustomDragLayer/CustomDragLayer.tsx&#45;&gt;src/components/Column/Column.tsx</title>
<path fill="none" stroke="#000000" stroke-width="2" stroke-opacity="0.200000" d="M340.01,-101C346.01,-101 352.02,-101 357.74,-101"/>
<polygon fill="#000000" fill-opacity="0.200000" stroke="#000000" stroke-width="2" stroke-opacity="0.200000" points="357.83,-103.1 363.83,-101 357.83,-98.9 357.83,-103.1"/>
</g>
<!-- src/components/CustomDragLayer/CustomDragLayer.tsx&#45;&gt;src/state/AppStateContext.tsx -->
<g id="edge23" class="edge">
<title>src/components/CustomDragLayer/CustomDragLayer.tsx&#45;&gt;src/state/AppStateContext.tsx</title>
<path fill="none" stroke="#000000" stroke-width="2" stroke-opacity="0.200000" d="M340.25,-108.52C343.04,-110.05 345.65,-111.87 348,-114 356.63,-121.85 351.82,-128.11 356,-139 389.35,-225.92 374.84,-265.53 442,-330 502.13,-387.72 605.14,-388.45 668.34,-382.25"/>
<polygon fill="#000000" fill-opacity="0.200000" stroke="#000000" stroke-width="2" stroke-opacity="0.200000" points="668.57,-384.34 674.33,-381.63 668.14,-380.16 668.57,-384.34"/>
</g>
<!-- src/components/CustomDragLayer/CustomDragLayer.tsx&#45;&gt;src/styles.ts -->
<g id="edge24" class="edge">
<title>src/components/CustomDragLayer/CustomDragLayer.tsx&#45;&gt;src/styles.ts</title>
<path fill="none" stroke="#000000" stroke-width="2" stroke-opacity="0.200000" d="M340.1,-107.39C343.04,-109.18 345.72,-111.36 348,-114 365.44,-134.25 347.13,-208.79 356,-234 378.14,-296.92 392.55,-312.23 442,-357 482.42,-393.6 496.62,-401.86 549,-417 596.74,-430.8 654.86,-430.59 690.38,-428.68"/>
<polygon fill="#000000" fill-opacity="0.200000" stroke="#000000" stroke-width="2" stroke-opacity="0.200000" points="690.87,-430.75 696.74,-428.3 690.63,-426.56 690.87,-430.75"/>
</g>
<!-- src/components/CustomDragLayer/CustomDragLayer.tsx&#45;&gt;src/components/Card/Card.tsx -->
<g id="edge25" class="edge">
<title>src/components/CustomDragLayer/CustomDragLayer.tsx&#45;&gt;src/components/Card/Card.tsx</title>
<path fill="none" stroke="#000000" stroke-width="2" stroke-opacity="0.200000" d="M338.81,-91.95C341.98,-90.78 345.07,-89.48 348,-88 352.22,-85.87 351.58,-82.66 356,-81 388.45,-68.81 399.83,-75.13 434,-81 444.28,-82.77 455.16,-86.21 464.61,-89.76"/>
<polygon fill="#000000" fill-opacity="0.200000" stroke="#000000" stroke-width="2" stroke-opacity="0.200000" points="463.93,-91.75 470.29,-91.96 465.45,-87.83 463.93,-91.75"/>
</g>
<!-- src/api/api.ts -->
<g id="node9" class="node">
<title>src/api/api.ts</title>
<g id="a_node9"><a xlink:href="src/api/api.ts" xlink:title="api.ts">
<path fill="#ddfeff" stroke="black" d="M980.5,-394C980.5,-394 938.5,-394 938.5,-394 935.5,-394 932.5,-391 932.5,-388 932.5,-388 932.5,-382 932.5,-382 932.5,-379 935.5,-376 938.5,-376 938.5,-376 980.5,-376 980.5,-376 983.5,-376 986.5,-379 986.5,-382 986.5,-382 986.5,-388 986.5,-388 986.5,-391 983.5,-394 980.5,-394"/>
<text text-anchor="start" x="948.5" y="-382.8" font-family="Helvetica,sans-Serif" font-size="9.00">api.ts</text>
</a>
</g>
</g>
<!-- src/state/AppStateContext.tsx&#45;&gt;src/api/api.ts -->
<g id="edge33" class="edge">
<title>src/state/AppStateContext.tsx&#45;&gt;src/api/api.ts</title>
<path fill="none" stroke="#000000" stroke-width="2" stroke-opacity="0.200000" d="M773.89,-381.6C783.41,-383.25 793.28,-385.08 802.5,-387 806.09,-387.75 806.86,-388.55 810.5,-389 857.26,-394.76 869.44,-391.24 916.5,-389 919.54,-388.86 922.7,-388.65 925.86,-388.41"/>
<polygon fill="#000000" fill-opacity="0.200000" stroke="#000000" stroke-width="2" stroke-opacity="0.200000" points="926.51,-390.47 932.31,-387.88 926.16,-386.28 926.51,-390.47"/>
</g>
<!-- src/state/appStateReducer.ts -->
<g id="node22" class="node">
<title>src/state/appStateReducer.ts</title>
<g id="a_node22"><a xlink:href="src/state/appStateReducer.ts" xlink:title="appStateReducer.ts">
<path fill="#ddfeff" stroke="black" d="M902.5,-353C902.5,-353 816.5,-353 816.5,-353 813.5,-353 810.5,-350 810.5,-347 810.5,-347 810.5,-341 810.5,-341 810.5,-338 813.5,-335 816.5,-335 816.5,-335 902.5,-335 902.5,-335 905.5,-335 908.5,-338 908.5,-341 908.5,-341 908.5,-347 908.5,-347 908.5,-350 905.5,-353 902.5,-353"/>
<text text-anchor="start" x="818.5" y="-341.8" font-family="Helvetica,sans-Serif" font-size="9.00">appStateReducer.ts</text>
</a>
</g>
</g>
<!-- src/state/AppStateContext.tsx&#45;&gt;src/state/appStateReducer.ts -->
<g id="edge34" class="edge">
<title>src/state/AppStateContext.tsx&#45;&gt;src/state/appStateReducer.ts</title>
<path fill="none" stroke="#000000" stroke-width="2" stroke-opacity="0.200000" d="M773.89,-365.08C783.41,-363.19 793.29,-361.12 802.5,-359 808.31,-357.66 814.43,-356.14 820.41,-354.59"/>
<polygon fill="#000000" fill-opacity="0.200000" stroke="#000000" stroke-width="2" stroke-opacity="0.200000" points="821.05,-356.59 826.32,-353.04 819.98,-352.53 821.05,-356.59"/>
</g>
<!-- src/state/withInitialState.tsx -->
<g id="node23" class="node">
<title>src/state/withInitialState.tsx</title>
<g id="a_node23"><a xlink:href="src/state/withInitialState.tsx" xlink:title="withInitialState.tsx">
<path fill="#bbfeff" stroke="black" d="M898,-383C898,-383 821,-383 821,-383 818,-383 815,-380 815,-377 815,-377 815,-371 815,-371 815,-368 818,-365 821,-365 821,-365 898,-365 898,-365 901,-365 904,-368 904,-371 904,-371 904,-377 904,-377 904,-380 901,-383 898,-383"/>
<text text-anchor="start" x="823" y="-371.8" font-family="Helvetica,sans-Serif" font-size="9.00">withInitialState.tsx</text>
</a>
</g>
</g>
<!-- src/state/AppStateContext.tsx&#45;&gt;src/state/withInitialState.tsx -->
<g id="edge35" class="edge">
<title>src/state/AppStateContext.tsx&#45;&gt;src/state/withInitialState.tsx</title>
<path fill="none" stroke="#000000" stroke-width="2" stroke-opacity="0.200000" d="M773.57,-374C784.9,-374 796.97,-374 808.36,-374"/>
<polygon fill="#000000" fill-opacity="0.200000" stroke="#000000" stroke-width="2" stroke-opacity="0.200000" points="808.61,-376.1 814.61,-374 808.61,-371.9 808.61,-376.1"/>
</g>
<!-- src/components/AddItemButton/AddItemButton.module.css -->
<g id="node10" class="node">
<title>src/components/AddItemButton/AddItemButton.module.css</title>
<g id="a_node10"><a xlink:href="src/components/AddItemButton/AddItemButton.module.css" xlink:title="AddItemButton.module.css">
<path fill="#ffffcc" stroke="black" d="M780.5,-50C780.5,-50 667.5,-50 667.5,-50 664.5,-50 661.5,-47 661.5,-44 661.5,-44 661.5,-38 661.5,-38 661.5,-35 664.5,-32 667.5,-32 667.5,-32 780.5,-32 780.5,-32 783.5,-32 786.5,-35 786.5,-38 786.5,-38 786.5,-44 786.5,-44 786.5,-47 783.5,-50 780.5,-50"/>
<text text-anchor="start" x="669.5" y="-38.8" font-family="Helvetica,sans-Serif" font-size="9.00">AddItemButton.module.css</text>
</a>
</g>
</g>
<!-- src/components/AddItemButton/AddItemButton.tsx&#45;&gt;src/components/AddItemButton/AddItemButton.module.css -->
<g id="edge8" class="edge">
<title>src/components/AddItemButton/AddItemButton.tsx&#45;&gt;src/components/AddItemButton/AddItemButton.module.css</title>
<path fill="none" stroke="#000000" stroke-width="2" stroke-opacity="0.200000" d="M647,-41C649.64,-41 652.31,-41 655.01,-41"/>
<polygon fill="#000000" fill-opacity="0.200000" stroke="#000000" stroke-width="2" stroke-opacity="0.200000" points="655.34,-43.1 661.34,-41 655.34,-38.9 655.34,-43.1"/>
</g>
<!-- src/components/NewItemForm/NewItemForm.tsx&#45;&gt;src/styles.ts -->
<g id="edge27" class="edge">
<title>src/components/NewItemForm/NewItemForm.tsx&#45;&gt;src/styles.ts</title>
<path fill="none" stroke="#000000" stroke-width="2" stroke-opacity="0.200000" d="M613.05,-110.11C625.23,-121.87 645.16,-143.63 653.5,-167 662.66,-192.65 644.17,-390.99 661.5,-412 668.61,-420.62 679.84,-424.6 690.76,-426.25"/>
<polygon fill="#000000" fill-opacity="0.200000" stroke="#000000" stroke-width="2" stroke-opacity="0.200000" points="690.56,-428.35 696.76,-426.95 691.05,-424.17 690.56,-428.35"/>
</g>
<!-- src/utils/useFocus.ts -->
<g id="node16" class="node">
<title>src/utils/useFocus.ts</title>
<g id="a_node16"><a xlink:href="src/utils/useFocus.ts" xlink:title="useFocus.ts">
<path fill="#ddfeff" stroke="black" d="M628.5,-286C628.5,-286 575.5,-286 575.5,-286 572.5,-286 569.5,-283 569.5,-280 569.5,-280 569.5,-274 569.5,-274 569.5,-271 572.5,-268 575.5,-268 575.5,-268 628.5,-268 628.5,-268 631.5,-268 634.5,-271 634.5,-274 634.5,-274 634.5,-280 634.5,-280 634.5,-283 631.5,-286 628.5,-286"/>
<text text-anchor="start" x="577.5" y="-274.8" font-family="Helvetica,sans-Serif" font-size="9.00">useFocus.ts</text>
</a>
</g>
</g>
<!-- src/components/NewItemForm/NewItemForm.tsx&#45;&gt;src/utils/useFocus.ts -->
<g id="edge28" class="edge">
<title>src/components/NewItemForm/NewItemForm.tsx&#45;&gt;src/utils/useFocus.ts</title>
<path fill="none" stroke="#000000" stroke-width="2" stroke-opacity="0.200000" d="M590.68,-110.26C576.48,-122.73 553.04,-146.45 545,-173 542.33,-181.83 542.33,-247.17 545,-256 547.61,-264.61 554.81,-269.82 563.25,-272.93"/>
<polygon fill="#000000" fill-opacity="0.200000" stroke="#000000" stroke-width="2" stroke-opacity="0.200000" points="562.9,-275.02 569.25,-274.76 564.13,-271 562.9,-275.02"/>
</g>
<!-- src/components/Card/Card.tsx&#45;&gt;src/state/actions.ts -->
<g id="edge11" class="edge">
<title>src/components/Card/Card.tsx&#45;&gt;src/state/actions.ts</title>
<path fill="none" stroke="#000000" stroke-width="2" stroke-opacity="0.200000" d="M502.96,-110.09C513.74,-118.94 531.41,-132.04 549,-139 592.76,-156.31 617.18,-126.08 653.5,-156 707.87,-200.78 719.71,-292.27 722.29,-328.62"/>
<polygon fill="#000000" fill-opacity="0.200000" stroke="#000000" stroke-width="2" stroke-opacity="0.200000" points="720.2,-328.88 722.67,-334.74 724.39,-328.62 720.2,-328.88"/>
</g>
<!-- src/components/Card/Card.tsx&#45;&gt;src/state/AppStateContext.tsx -->
<g id="edge12" class="edge">
<title>src/components/Card/Card.tsx&#45;&gt;src/state/AppStateContext.tsx</title>
<path fill="none" stroke="#000000" stroke-width="2" stroke-opacity="0.200000" d="M499.82,-110.13C509.68,-121.71 528.36,-141.33 549,-151 591.55,-170.94 622.16,-132 653.5,-167 667.74,-182.91 647.96,-342.49 661.5,-359 663.68,-361.66 666.24,-363.89 669.06,-365.76"/>
<polygon fill="#000000" fill-opacity="0.200000" stroke="#000000" stroke-width="2" stroke-opacity="0.200000" points="668.13,-367.64 674.39,-368.75 670.18,-363.98 668.13,-367.64"/>
</g>
<!-- src/components/Card/Card.tsx&#45;&gt;src/styles.ts -->
<g id="edge13" class="edge">
<title>src/components/Card/Card.tsx&#45;&gt;src/styles.ts</title>
<path fill="none" stroke="#000000" stroke-width="2" stroke-opacity="0.200000" d="M518.54,-102C526.99,-103.7 535.57,-107.18 541,-114 556.98,-134.1 535.93,-322.9 549,-345 578.69,-395.19 649.11,-414.62 690.69,-421.88"/>
<polygon fill="#000000" fill-opacity="0.200000" stroke="#000000" stroke-width="2" stroke-opacity="0.200000" points="690.59,-423.99 696.86,-422.91 691.28,-419.85 690.59,-423.99"/>
</g>
<!-- src/components/Card/Card.tsx&#45;&gt;src/utils/isHidden.ts -->
<g id="edge14" class="edge">
<title>src/components/Card/Card.tsx&#45;&gt;src/utils/isHidden.ts</title>
<path fill="none" stroke="#000000" stroke-width="2" stroke-opacity="0.200000" d="M495.76,-110.29C504.04,-134.12 526.28,-199.45 541,-255 545.31,-271.26 537.51,-279.71 549,-292 553.28,-296.58 558.87,-299.8 564.78,-302.04"/>
<polygon fill="#000000" fill-opacity="0.200000" stroke="#000000" stroke-width="2" stroke-opacity="0.200000" points="564.42,-304.13 570.77,-303.98 565.71,-300.13 564.42,-304.13"/>
</g>
<!-- src/components/Card/Card.tsx&#45;&gt;src/utils/useItemDrag.ts -->
<g id="edge15" class="edge">
<title>src/components/Card/Card.tsx&#45;&gt;src/utils/useItemDrag.ts</title>
<path fill="none" stroke="#000000" stroke-width="2" stroke-opacity="0.200000" d="M498.55,-110.14C508.82,-126.09 529.66,-160.31 541,-192 547.11,-209.07 536.73,-218.66 549,-232 551.39,-234.59 554.19,-236.75 557.23,-238.54"/>
<polygon fill="#000000" fill-opacity="0.200000" stroke="#000000" stroke-width="2" stroke-opacity="0.200000" points="556.64,-240.59 562.94,-241.38 558.51,-236.83 556.64,-240.59"/>
</g>
<!-- src/utils/useItemDrag.ts&#45;&gt;src/state/actions.ts -->
<g id="edge38" class="edge">
<title>src/utils/useItemDrag.ts&#45;&gt;src/state/actions.ts</title>
<path fill="none" stroke="#000000" stroke-width="2" stroke-opacity="0.200000" d="M641.03,-255.65C645.41,-257.41 649.67,-259.5 653.5,-262 654.42,-262.6 691.76,-306.88 711.32,-330.11"/>
<polygon fill="#000000" fill-opacity="0.200000" stroke="#000000" stroke-width="2" stroke-opacity="0.200000" points="709.95,-331.76 715.42,-334.99 713.17,-329.05 709.95,-331.76"/>
</g>
<!-- src/utils/useItemDrag.ts&#45;&gt;src/state/AppStateContext.tsx -->
<g id="edge39" class="edge">
<title>src/utils/useItemDrag.ts&#45;&gt;src/state/AppStateContext.tsx</title>
<path fill="none" stroke="#000000" stroke-width="2" stroke-opacity="0.200000" d="M641.15,-252.76C645.89,-254.97 650.21,-257.95 653.5,-262 667.14,-278.79 647.45,-342.55 661.5,-359 663.69,-361.56 666.23,-363.72 669.01,-365.54"/>
<polygon fill="#000000" fill-opacity="0.200000" stroke="#000000" stroke-width="2" stroke-opacity="0.200000" points="667.99,-367.38 674.26,-368.47 670.04,-363.71 667.99,-367.38"/>
</g>
<!-- src/index.css -->
<g id="node17" class="node">
<title>src/index.css</title>
<g id="a_node17"><a xlink:href="src/index.css" xlink:title="index.css">
<path fill="#ffffcc" stroke="black" d="M187,-418C187,-418 144,-418 144,-418 141,-418 138,-415 138,-412 138,-412 138,-406 138,-406 138,-403 141,-400 144,-400 144,-400 187,-400 187,-400 190,-400 193,-403 193,-406 193,-406 193,-412 193,-412 193,-415 190,-418 187,-418"/>
<text text-anchor="start" x="146" y="-406.8" font-family="Helvetica,sans-Serif" font-size="9.00">index.css</text>
</a>
</g>
</g>
<!-- src/index.tsx -->
<g id="node18" class="node">
<title>src/index.tsx</title>
<g id="a_node18"><a xlink:href="src/index.tsx" xlink:title="index.tsx">
<path fill="#bbfeff" stroke="black" d="M82,-418C82,-418 40,-418 40,-418 37,-418 34,-415 34,-412 34,-412 34,-406 34,-406 34,-403 37,-400 40,-400 40,-400 82,-400 82,-400 85,-400 88,-403 88,-406 88,-406 88,-412 88,-412 88,-415 85,-418 82,-418"/>
<text text-anchor="start" x="42.5" y="-406.8" font-family="Helvetica,sans-Serif" font-size="9.00">index.tsx</text>
</a>
</g>
</g>
<!-- src/index.tsx&#45;&gt;src/App.tsx -->
<g id="edge29" class="edge">
<title>src/index.tsx&#45;&gt;src/App.tsx</title>
<path fill="none" stroke="#000000" stroke-width="2" stroke-opacity="0.200000" d="M88.13,-401.35C101.62,-397.4 118.2,-392.55 132.46,-388.38"/>
<polygon fill="#000000" fill-opacity="0.200000" stroke="#000000" stroke-width="2" stroke-opacity="0.200000" points="133.25,-390.33 138.42,-386.63 132.07,-386.3 133.25,-390.33"/>
</g>
<!-- src/index.tsx&#45;&gt;src/state/AppStateContext.tsx -->
<g id="edge32" class="edge">
<title>src/index.tsx&#45;&gt;src/state/AppStateContext.tsx</title>
<path fill="none" stroke="#000000" stroke-width="2" stroke-opacity="0.200000" d="M88.09,-413.4C94.5,-415.48 100.97,-418.52 106,-423 117.29,-433.05 107.53,-445.46 120,-454 181.15,-495.86 212.39,-463 286.5,-463 286.5,-463 286.5,-463 396,-463 511.44,-463 569.58,-508.27 653.5,-429 667.31,-415.95 648.2,-400.57 661.5,-387 663.68,-384.78 666.13,-382.89 668.77,-381.29"/>
<polygon fill="#000000" fill-opacity="0.200000" stroke="#000000" stroke-width="2" stroke-opacity="0.200000" points="670.05,-382.99 674.44,-378.39 668.14,-379.26 670.05,-382.99"/>
</g>
<!-- src/index.tsx&#45;&gt;src/index.css -->
<g id="edge30" class="edge">
<title>src/index.tsx&#45;&gt;src/index.css</title>
<path fill="none" stroke="#000000" stroke-width="2" stroke-opacity="0.200000" d="M88.13,-409C101.3,-409 117.4,-409 131.43,-409"/>
<polygon fill="#000000" fill-opacity="0.200000" stroke="#000000" stroke-width="2" stroke-opacity="0.200000" points="131.7,-411.1 137.7,-409 131.7,-406.9 131.7,-411.1"/>
</g>
<!-- src/reportWebVitals.ts -->
<g id="node19" class="node">
<title>src/reportWebVitals.ts</title>
<g id="a_node19"><a xlink:href="src/reportWebVitals.ts" xlink:title="reportWebVitals.ts">
<path fill="#ddfeff" stroke="black" d="M205,-448C205,-448 126,-448 126,-448 123,-448 120,-445 120,-442 120,-442 120,-436 120,-436 120,-433 123,-430 126,-430 126,-430 205,-430 205,-430 208,-430 211,-433 211,-436 211,-436 211,-442 211,-442 211,-445 208,-448 205,-448"/>
<text text-anchor="start" x="128" y="-436.8" font-family="Helvetica,sans-Serif" font-size="9.00">reportWebVitals.ts</text>
</a>
</g>
</g>
<!-- src/index.tsx&#45;&gt;src/reportWebVitals.ts -->
<g id="edge31" class="edge">
<title>src/index.tsx&#45;&gt;src/reportWebVitals.ts</title>
<path fill="none" stroke="#000000" stroke-width="2" stroke-opacity="0.200000" d="M88.13,-416.65C100.17,-420.17 114.66,-424.41 127.77,-428.25"/>
<polygon fill="#000000" fill-opacity="0.200000" stroke="#000000" stroke-width="2" stroke-opacity="0.200000" points="127.33,-430.31 133.68,-429.98 128.51,-426.28 127.33,-430.31"/>
</g>
<!-- src/react&#45;app&#45;env.d.ts -->
<g id="node20" class="node">
<title>src/react&#45;app&#45;env.d.ts</title>
<g id="a_node20"><a xlink:href="src/react-app-env.d.ts" xlink:title="react&#45;app&#45;env.d.ts">
<path fill="#ccffcc" stroke="black" d="M100,-285C100,-285 22,-285 22,-285 19,-285 16,-282 16,-279 16,-279 16,-273 16,-273 16,-270 19,-267 22,-267 22,-267 100,-267 100,-267 103,-267 106,-270 106,-273 106,-273 106,-279 106,-279 106,-282 103,-285 100,-285"/>
<text text-anchor="start" x="24" y="-273.8" font-family="Helvetica,sans-Serif" font-size="9.00">react&#45;app&#45;env.d.ts</text>
</a>
</g>
</g>
<!-- src/setupTests.ts -->
<g id="node21" class="node">
<title>src/setupTests.ts</title>
<g id="a_node21"><a xlink:href="src/setupTests.ts" xlink:title="setupTests.ts">
<path fill="#ccffcc" stroke="black" d="M89.5,-108C89.5,-108 32.5,-108 32.5,-108 29.5,-108 26.5,-105 26.5,-102 26.5,-102 26.5,-96 26.5,-96 26.5,-93 29.5,-90 32.5,-90 32.5,-90 89.5,-90 89.5,-90 92.5,-90 95.5,-93 95.5,-96 95.5,-96 95.5,-102 95.5,-102 95.5,-105 92.5,-108 89.5,-108"/>
<text text-anchor="start" x="34.5" y="-96.8" font-family="Helvetica,sans-Serif" font-size="9.00">setupTests.ts</text>
</a>
</g>
</g>
<!-- src/utils/arrayutils.ts -->
<g id="node24" class="node">
<title>src/utils/arrayutils.ts</title>
<g id="a_node24"><a xlink:href="src/utils/arrayutils.ts" xlink:title="arrayutils.ts">
<path fill="#ddfeff" stroke="black" d="M627.5,-226C627.5,-226 576.5,-226 576.5,-226 573.5,-226 570.5,-223 570.5,-220 570.5,-220 570.5,-214 570.5,-214 570.5,-211 573.5,-208 576.5,-208 576.5,-208 627.5,-208 627.5,-208 630.5,-208 633.5,-211 633.5,-214 633.5,-214 633.5,-220 633.5,-220 633.5,-223 630.5,-226 627.5,-226"/>
<text text-anchor="start" x="578.5" y="-214.8" font-family="Helvetica,sans-Serif" font-size="9.00">arrayutils.ts</text>
</a>
</g>
</g>
<!-- src/state/appStateReducer.ts&#45;&gt;src/utils/arrayutils.ts -->
<g id="edge36" class="edge">
<title>src/state/appStateReducer.ts&#45;&gt;src/utils/arrayutils.ts</title>
<path fill="none" stroke="#000000" stroke-width="2" stroke-opacity="0.200000" d="M844.11,-334.74C811.38,-313.99 728.38,-263.17 653.5,-232 649.05,-230.15 644.29,-228.42 639.53,-226.85"/>
<polygon fill="#000000" fill-opacity="0.200000" stroke="#000000" stroke-width="2" stroke-opacity="0.200000" points="639.89,-224.76 633.54,-224.94 638.62,-228.76 639.89,-224.76"/>
</g>
<!-- src/state/withInitialState.tsx&#45;&gt;src/api/api.ts -->
<g id="edge37" class="edge">
<title>src/state/withInitialState.tsx&#45;&gt;src/api/api.ts</title>
<path fill="none" stroke="#000000" stroke-width="2" stroke-opacity="0.200000" d="M904.05,-378.89C911.41,-379.71 918.94,-380.56 925.95,-381.35"/>
<polygon fill="#000000" fill-opacity="0.200000" stroke="#000000" stroke-width="2" stroke-opacity="0.200000" points="926.03,-383.47 932.23,-382.05 926.5,-379.3 926.03,-383.47"/>
</g>
<!-- src/trellobackend/index.js -->
<g id="node25" class="node">
<title>src/trellobackend/index.js</title>
<g id="a_node25"><a xlink:href="src/trellobackend/index.js" xlink:title="index.js">
<path fill="#ccffcc" stroke="black" d="M82,-452C82,-452 40,-452 40,-452 37,-452 34,-449 34,-446 34,-446 34,-440 34,-440 34,-437 37,-434 40,-434 40,-434 82,-434 82,-434 85,-434 88,-437 88,-440 88,-440 88,-446 88,-446 88,-449 85,-452 82,-452"/>
<text text-anchor="start" x="45" y="-440.8" font-family="Helvetica,sans-Serif" font-size="9.00">index.js</text>
</a>
</g>
</g>
<!-- src/utils/DragItem.ts -->
<g id="node26" class="node">
<title>src/utils/DragItem.ts</title>
<g id="a_node26"><a xlink:href="src/utils/DragItem.ts" xlink:title="DragItem.ts">
<path fill="#ccffcc" stroke="black" d="M627.5,-196C627.5,-196 576.5,-196 576.5,-196 573.5,-196 570.5,-193 570.5,-190 570.5,-190 570.5,-184 570.5,-184 570.5,-181 573.5,-178 576.5,-178 576.5,-178 627.5,-178 627.5,-178 630.5,-178 633.5,-181 633.5,-184 633.5,-184 633.5,-190 633.5,-190 633.5,-193 630.5,-196 627.5,-196"/>
<text text-anchor="start" x="578.5" y="-184.8" font-family="Helvetica,sans-Serif" font-size="9.00">DragItem.ts</text>
</a>
</g>
</g>
</g>
</svg>
